<svg width="47" height="46" viewBox="0 0 47 46" fill="none" xmlns="http://www.w3.org/2000/svg">
<rect x="0.5" width="46" height="46" rx="23" fill="#EBF0F0" fill-opacity="0.1"/>
<path d="M29.8437 20.25C29.8645 20.3333 29.875 20.4687 29.875 20.6562C29.875 22.1562 29.5104 23.6042 28.7812 25C28.0312 26.4791 26.9791 27.6562 25.625 28.5312C24.1458 29.5104 22.4479 30 20.5312 30C18.6979 30 17.0208 29.5104 15.5 28.5312C15.7292 28.5521 15.9896 28.5625 16.2812 28.5625C17.8021 28.5625 19.1667 28.0937 20.375 27.1562C19.6458 27.1562 19.0052 26.9427 18.4531 26.5156C17.901 26.0885 17.5208 25.5521 17.3125 24.9062C17.5208 24.9271 17.7187 24.9375 17.9062 24.9375C18.1979 24.9375 18.4896 24.9062 18.7812 24.8437C18.0312 24.6771 17.4062 24.2916 16.9062 23.6875C16.4062 23.0833 16.1562 22.3958 16.1562 21.625V21.5625C16.6146 21.8333 17.1042 21.9792 17.625 22C17.1875 21.6875 16.8333 21.2917 16.5625 20.8125C16.2917 20.3333 16.1562 19.8073 16.1562 19.2344C16.1562 18.6615 16.3125 18.1146 16.625 17.5937C17.4375 18.6146 18.4323 19.4271 19.6094 20.0312C20.7864 20.6354 22.0417 20.9687 23.375 21.0312C23.3333 20.7812 23.3125 20.5312 23.3125 20.2812C23.3125 19.6979 23.4583 19.151 23.75 18.6406C24.0416 18.1302 24.4375 17.7292 24.9375 17.4375C25.4375 17.1458 25.9791 17 26.5625 17C27.0416 17 27.4843 17.0937 27.8906 17.2812C28.2968 17.4687 28.6562 17.7187 28.9687 18.0312C29.7187 17.8854 30.4166 17.625 31.0625 17.25C30.8125 18.0208 30.3333 18.625 29.625 19.0625C30.25 18.9792 30.875 18.8021 31.5 18.5312C31.0416 19.1979 30.4895 19.7708 29.8437 20.25Z" fill="white"/>
</svg>
