<svg width="79" height="61" viewBox="0 0 79 61" fill="none" xmlns="http://www.w3.org/2000/svg">
<path opacity="0.15" d="M4.72183 12.6005L5.13934 12.8756L5.22183 12.7504V12.6005H4.72183ZM0.728671 18.6606L0.311161 18.3855H0.311161L0.728671 18.6606ZM0.728671 20.3394L1.14618 20.0643H1.14618L0.728671 20.3394ZM4.72183 26.3995H5.22183V26.2496L5.13934 26.1244L4.72183 26.3995ZM5.22183 8.5C5.22183 4.35786 8.5797 1 12.7218 1V0C8.02741 0 4.22183 3.80558 4.22183 8.5H5.22183ZM5.22183 12.6005V8.5H4.22183V12.6005H5.22183ZM1.14618 18.9357L5.13934 12.8756L4.30433 12.3254L0.311161 18.3855L1.14618 18.9357ZM1.14618 20.0643C1.05871 19.9316 1 19.7287 1 19.5C1 19.2713 1.05871 19.0684 1.14618 18.9357L0.311161 18.3855C0.0937377 18.7154 8.9407e-08 19.1206 0 19.5C-5.96046e-08 19.8794 0.0937373 20.2846 0.311161 20.6145L1.14618 20.0643ZM5.13934 26.1244L1.14618 20.0643L0.311161 20.6145L4.30433 26.6746L5.13934 26.1244ZM5.22183 52.5V26.3995H4.22183V52.5H5.22183ZM12.7218 60C8.57969 60 5.22183 56.6421 5.22183 52.5H4.22183C4.22183 57.1944 8.0274 61 12.7218 61V60ZM70.0367 60H12.7218V61H70.0367V60ZM77.5367 52.5C77.5367 56.6421 74.1788 60 70.0367 60V61C74.7311 61 78.5367 57.1944 78.5367 52.5H77.5367ZM77.5367 8.5V52.5H78.5367V8.5H77.5367ZM70.0367 1C74.1788 1 77.5367 4.35786 77.5367 8.5H78.5367C78.5367 3.80558 74.7311 0 70.0367 0V1ZM12.7218 1H70.0367V0H12.7218V1Z" fill="#CFDBD5"/>
</svg>
