<svg width="1279" height="5586" viewBox="0 0 1279 5586" fill="none" xmlns="http://www.w3.org/2000/svg">
<path d="M163.893 511.011L163.045 516.188L157.576 518.633L163.852 519.573L167.045 524.233L167.893 519.055L173.361 516.611L167.086 515.671L163.893 511.011Z" fill="white"/>
<path d="M1011.89 10.0107L1011.05 15.1883L1005.58 17.6326L1011.85 18.5729L1015.04 23.2331L1015.89 18.0555L1021.36 15.6112L1015.09 14.6709L1011.89 10.0107Z" fill="white"/>
<path d="M1067.3 853.319L1066.19 860.076L1059.06 863.266L1067.25 864.493L1071.41 870.575L1072.52 863.818L1079.66 860.628L1071.47 859.401L1067.3 853.319Z" fill="white"/>
<path d="M161.207 1.30713L160.111 8.00331L153.038 11.1645L161.154 12.3805L165.284 18.4075L166.38 11.7114L173.453 8.5502L165.336 7.33413L161.207 1.30713Z" fill="white"/>
<path d="M1206.51 392.171L1204.41 405.041L1190.81 411.117L1206.41 413.454L1214.35 425.038L1216.46 412.168L1230.05 406.092L1214.45 403.755L1206.51 392.171Z" fill="white"/>
<path d="M823.803 302.999L822.965 308.118L817.558 310.535L823.763 311.464L826.919 316.072L827.758 310.953L833.164 308.536L826.96 307.607L823.803 302.999Z" fill="white"/>
<path d="M1262.72 1331.85L1261.5 1339.27L1253.66 1342.78L1262.66 1344.13L1267.24 1350.81L1268.46 1343.39L1276.3 1339.88L1267.3 1338.53L1262.72 1331.85Z" fill="white"/>
<path d="M823.746 1457.3L822.971 1462.03L817.97 1464.27L823.709 1465.13L826.628 1469.39L827.403 1464.65L832.404 1462.42L826.666 1461.56L823.746 1457.3Z" fill="white"/>
<path d="M15.6786 2607.22L14.2672 2615.84L5.16209 2619.91L15.6104 2621.47L20.9262 2629.23L22.3376 2620.61L31.4427 2616.54L20.9943 2614.98L15.6786 2607.22Z" fill="white"/>
<path d="M816.464 2648.87L818.862 2652.14L817.041 2655.2L821.223 2653.87L825.686 2655.63L823.288 2652.35L825.11 2649.29L820.928 2650.62L816.464 2648.87Z" fill="white"/>
<path d="M658.094 3876.93L656.473 3886.84L646.014 3891.51L658.016 3893.31L664.123 3902.22L665.744 3892.32L676.203 3887.64L664.201 3885.85L658.094 3876.93Z" fill="white"/>
<path d="M633.094 3251.93L631.473 3261.84L621.014 3266.51L633.016 3268.31L639.123 3277.22L640.744 3267.32L651.203 3262.64L639.201 3260.85L633.094 3251.93Z" fill="white"/>
<path d="M43.2172 3589.92L42.4421 3594.66L37.4412 3596.89L43.1798 3597.75L46.0994 3602.02L46.8746 3597.28L51.8754 3595.05L46.1368 3594.19L43.2172 3589.92Z" fill="white"/>
<path d="M42.1057 1672.68L40.6981 1681.28L31.6169 1685.33L42.0378 1686.9L47.3395 1694.63L48.7472 1686.04L57.8283 1681.98L47.4075 1680.42L42.1057 1672.68Z" fill="white"/>
<path d="M1206.22 3614.92L1205.44 3619.66L1200.44 3621.89L1206.18 3622.75L1209.1 3627.02L1209.87 3622.28L1214.88 3620.05L1209.14 3619.19L1206.22 3614.92Z" fill="white"/>
<path d="M43.1228 3801.83L42.3476 3806.57L37.3468 3808.8L43.0853 3809.66L46.0049 3813.93L46.7801 3809.19L51.7809 3806.96L46.0423 3806.1L43.1228 3801.83Z" fill="white"/>
<path d="M396.743 869.632L395.374 877.992L386.544 881.939L396.677 883.457L401.832 890.981L403.201 882.621L412.031 878.675L401.898 877.156L396.743 869.632Z" fill="white"/>
<path d="M1178.14 1675.68L1176.73 1684.3L1167.62 1688.37L1178.07 1689.94L1183.39 1697.7L1184.8 1689.08L1193.9 1685.01L1183.46 1683.44L1178.14 1675.68Z" fill="white"/>
<path d="M833.99 238.659L833.339 242.632L829.142 244.508L833.959 245.23L836.409 248.807L837.06 244.833L841.257 242.957L836.44 242.235L833.99 238.659Z" fill="white"/>
<path d="M581.719 2473.4L579.708 2485.68L566.738 2491.47L581.622 2493.7L589.194 2504.76L591.205 2492.48L604.175 2486.68L589.291 2484.45L581.719 2473.4Z" fill="white"/>
<path d="M1213.09 5085.93L1211.47 5095.84L1201.01 5100.51L1213.02 5102.31L1219.12 5111.22L1220.74 5101.32L1231.2 5096.64L1219.2 5094.85L1213.09 5085.93Z" fill="white"/>
<path d="M15.0945 5129.93L13.4732 5139.84L3.01404 5144.51L15.0162 5146.31L21.1225 5155.22L22.7438 5145.32L33.203 5140.64L21.2008 5138.85L15.0945 5129.93Z" fill="white"/>
<path d="M998.094 5545.93L996.473 5555.84L986.014 5560.51L998.016 5562.31L1004.12 5571.22L1005.74 5561.32L1016.2 5556.64L1004.2 5554.85L998.094 5545.93Z" fill="white"/>
<path d="M197.48 4015.83L196.784 4020.08L192.294 4022.09L197.447 4022.86L200.068 4026.69L200.765 4022.44L205.255 4020.43L200.102 4019.66L197.48 4015.83Z" fill="white"/>
<path d="M497.48 4446.83L496.784 4451.08L492.294 4453.09L497.447 4453.86L500.068 4457.69L500.765 4453.44L505.255 4451.43L500.102 4450.66L497.48 4446.83Z" fill="white"/>
<path d="M166.48 5573.83L165.784 5578.08L161.294 5580.09L166.447 5580.86L169.068 5584.69L169.765 5580.44L174.255 5578.43L169.102 5577.66L166.48 5573.83Z" fill="white"/>
<path d="M224.48 5229.83L223.784 5234.08L219.294 5236.09L224.447 5236.86L227.068 5240.69L227.765 5236.44L232.255 5234.43L227.102 5233.66L224.48 5229.83Z" fill="white"/>
<path d="M1099.48 3923.83L1098.78 3928.08L1094.29 3930.09L1099.45 3930.86L1102.07 3934.69L1102.76 3930.44L1107.25 3928.43L1102.1 3927.66L1099.48 3923.83Z" fill="white"/>
<path d="M1149.48 4384.83L1148.78 4389.08L1144.29 4391.09L1149.45 4391.86L1152.07 4395.69L1152.76 4391.44L1157.25 4389.43L1152.1 4388.66L1149.48 4384.83Z" fill="white"/>
<path d="M608.48 5034.83L607.784 5039.08L603.294 5041.09L608.447 5041.86L611.068 5045.69L611.765 5041.44L616.255 5039.43L611.102 5038.66L608.48 5034.83Z" fill="white"/>
<path d="M1025.48 5296.83L1024.78 5301.08L1020.29 5303.09L1025.45 5303.86L1028.07 5307.69L1028.76 5303.44L1033.25 5301.43L1028.1 5300.66L1025.48 5296.83Z" fill="white"/>
<path d="M644.48 5553.83L643.784 5558.08L639.294 5560.09L644.447 5560.86L647.068 5564.69L647.765 5560.44L652.255 5558.43L647.102 5557.66L644.48 5553.83Z" fill="white"/>
<path d="M55.217 4393.92L54.4418 4398.66L49.441 4400.89L55.1796 4401.75L58.0992 4406.02L58.8743 4401.28L63.8752 4399.05L58.1366 4398.19L55.217 4393.92Z" fill="white"/>
</svg>
