<svg width="670" height="248" viewBox="0 0 670 248" fill="none" xmlns="http://www.w3.org/2000/svg">
<path opacity="0.15" d="M0.499972 247.437L669.5 247.437" stroke="#CFDBD5" stroke-linecap="square"/>
<path fill-rule="evenodd" clip-rule="evenodd" d="M16.2082 198.05L16.2082 0.500749L16.2082 198.05Z" fill="white" fill-opacity="0.05"/>
<path d="M16.2082 198.05L16.2082 0.500751" stroke="#CFDBD5" stroke-opacity="0.15" stroke-linecap="square" stroke-dasharray="4 4"/>
<path fill-rule="evenodd" clip-rule="evenodd" d="M399.603 198.05L399.348 0.500749L399.603 198.05Z" fill="white" fill-opacity="0.05"/>
<path d="M399.603 198.05L399.348 0.500751" stroke="#CFDBD5" stroke-opacity="0.15" stroke-linecap="square" stroke-dasharray="4 4"/>
<path fill-rule="evenodd" clip-rule="evenodd" d="M80.1593 198.05L79.904 0.500749L80.1593 198.05Z" fill="white" fill-opacity="0.05"/>
<path d="M80.1593 198.05L79.904 0.500751" stroke="#CFDBD5" stroke-opacity="0.15" stroke-linecap="square" stroke-dasharray="4 4"/>
<path fill-rule="evenodd" clip-rule="evenodd" d="M463.1 198.05L462.844 0.500749L463.1 198.05Z" fill="white" fill-opacity="0.05"/>
<path d="M463.1 198.05L462.844 0.500751" stroke="#CFDBD5" stroke-opacity="0.15" stroke-linecap="square" stroke-dasharray="4 4"/>
<path fill-rule="evenodd" clip-rule="evenodd" d="M144.31 198.05L144.055 0.500749L144.31 198.05Z" fill="white" fill-opacity="0.05"/>
<path d="M144.31 198.05L144.055 0.500751" stroke="#CFDBD5" stroke-opacity="0.15" stroke-linecap="square" stroke-dasharray="4 4"/>
<path fill-rule="evenodd" clip-rule="evenodd" d="M527.25 198.05L526.995 0.500749L527.25 198.05Z" fill="white" fill-opacity="0.05"/>
<path d="M527.25 198.05L526.995 0.500751" stroke="#CFDBD5" stroke-opacity="0.15" stroke-linecap="square" stroke-dasharray="4 4"/>
<path fill-rule="evenodd" clip-rule="evenodd" d="M590.746 198.05L590.491 0.500749L590.746 198.05Z" fill="white" fill-opacity="0.05"/>
<path d="M590.746 198.05L590.491 0.500751" stroke="#CFDBD5" stroke-opacity="0.15" stroke-linecap="square" stroke-dasharray="4 4"/>
<path fill-rule="evenodd" clip-rule="evenodd" d="M654.769 198.05V0.500749V198.05Z" fill="white" fill-opacity="0.05"/>
<path d="M654.769 198.05V0.500751" stroke="#CFDBD5" stroke-opacity="0.15" stroke-linecap="square" stroke-dasharray="4 4"/>
<path fill-rule="evenodd" clip-rule="evenodd" d="M207.806 198.05L207.551 0.500749L207.806 198.05Z" fill="white" fill-opacity="0.05"/>
<path d="M207.806 198.05L207.551 0.500751" stroke="#CFDBD5" stroke-opacity="0.15" stroke-linecap="square" stroke-dasharray="4 4"/>
<path fill-rule="evenodd" clip-rule="evenodd" d="M271.951 198.05L271.706 0.500749L271.951 198.05Z" fill="white" fill-opacity="0.05"/>
<path d="M271.951 198.05L271.706 0.500751" stroke="#CFDBD5" stroke-opacity="0.15" stroke-linecap="square" stroke-dasharray="4 4"/>
<path fill-rule="evenodd" clip-rule="evenodd" d="M335.453 198.05L335.198 0.500749L335.453 198.05Z" fill="white" fill-opacity="0.05"/>
<path d="M335.453 198.05L335.198 0.500751" stroke="#CFDBD5" stroke-opacity="0.15" stroke-linecap="square" stroke-dasharray="4 4"/>
</svg>
