<svg width="15" height="14" viewBox="0 0 15 14" fill="none" xmlns="http://www.w3.org/2000/svg">
<path d="M10.8803 0C9.57746 0 8.30986 0.598592 7.5 1.58451C6.69014 0.598592 5.42254 0 4.11972 0C1.79577 0 0 1.83099 0 4.11972C0 6.97183 2.53521 9.29577 6.40845 12.8169L7.5 13.7676L8.59155 12.7817C12.4648 9.29577 15 6.97183 15 4.11972C15 1.83099 13.2042 0 10.8803 0ZM7.57042 11.6901L7.5 11.7606L7.42958 11.6901C3.83803 8.4507 1.47887 6.30282 1.47887 4.11972C1.47887 2.64085 2.60563 1.51408 4.11972 1.51408C5.28169 1.51408 6.40845 2.25352 6.79577 3.27465H8.20423C8.59155 2.25352 9.71831 1.51408 10.8803 1.51408C12.3944 1.51408 13.5211 2.64085 13.5211 4.11972C13.5211 6.30282 11.162 8.4507 7.57042 11.6901Z" fill="#FFFAFA"/>
</svg>
