<svg width="26" height="26" viewBox="0 0 26 26" fill="none" xmlns="http://www.w3.org/2000/svg">
<path d="M25.975 13.8567C25.9813 13.8069 25.9813 13.7565 25.975 13.7067C25.9875 13.469 26 13.2439 26 13.0063C26.0044 10.0428 24.9892 7.168 23.125 4.86493C23.0816 4.78298 23.0221 4.71067 22.95 4.65233C21.5718 3.00417 19.8067 1.72368 17.8125 0.925546L17.675 0.875522C14.6675 -0.291841 11.3325 -0.291841 8.32501 0.875522L8.18751 0.925546C6.19334 1.72368 4.42815 3.00417 3.05001 4.65233C2.97795 4.71067 2.91842 4.78298 2.87501 4.86493C1.01082 7.168 -0.00435425 10.0428 1.40388e-05 13.0063C1.40388e-05 13.2439 0.0125141 13.469 0.0250141 13.7067C0.0187395 13.7565 0.0187395 13.8069 0.0250141 13.8567C0.169177 16.0056 0.843445 18.0852 1.98751 19.9096C2.02596 19.985 2.07204 20.0562 2.12501 20.1222C3.88197 22.8051 6.56539 24.7463 9.6625 25.5748H9.7C11.8635 26.1417 14.1365 26.1417 16.3 25.5748H16.3375C19.4346 24.7463 22.118 22.8051 23.875 20.1222C23.928 20.0562 23.974 19.985 24.0125 19.9096C25.1566 18.0852 25.8308 16.0056 25.975 13.8567ZM2.06251 14.1944L5.56251 11.6432L7.21251 12.1809L8.8 17.0833L7.78751 18.4839H3.46251C2.6986 17.1689 2.22149 15.707 2.06251 14.1944ZM3.40001 7.64125L4.21251 10.155L2.07501 11.7057C2.2456 10.277 2.69584 8.89587 3.40001 7.64125ZM10.6375 16.2579L9.1875 11.7682L13 8.9919L16.8125 11.7682L15.3625 16.2579H10.6375ZM18.2125 18.4839L17.2 17.0833L18.7875 12.1809L20.4375 11.6432L23.9375 14.1944C23.7785 15.707 23.3014 17.1689 22.5375 18.4839H18.2125ZM23.925 11.7057L21.7875 10.155L22.6 7.64125C23.3042 8.89587 23.7544 10.277 23.925 11.7057ZM21.15 5.62779L19.8125 9.74226L18.1625 10.28L14 7.24106V5.51524L17.5 2.96402C18.8896 3.58652 20.1331 4.49402 21.15 5.62779ZM15.1375 2.21366L13 3.7644L10.8625 2.21366C12.2734 1.93035 13.7266 1.93035 15.1375 2.21366ZM8.5 2.96402L12 5.51524V7.24106L7.8375 10.28L6.18751 9.74226L4.85001 5.62779C5.86688 4.49402 7.11037 3.58652 8.5 2.96402ZM4.93751 20.4849H7.57501L8.38751 22.9986C7.08645 22.3908 5.915 21.5372 4.93751 20.4849ZM10.75 23.774L9.4125 19.6595L10.425 18.2588H15.575L16.5875 19.6595L15.25 23.774C13.7667 24.0908 12.2333 24.0908 10.75 23.774ZM17.6125 22.9986L18.425 20.4849H21.0625C20.085 21.5372 18.9135 22.3908 17.6125 22.9986Z" fill="#F8F8F8"/>
</svg>
