<svg width="163" height="163" viewBox="0 0 163 163" fill="none" xmlns="http://www.w3.org/2000/svg">
<circle cx="81.5" cy="81.5" r="79.4927" stroke="#EBF0F0" stroke-opacity="0.1" stroke-width="4"/>
<path d="M107.665 6.43695C97.0124 2.72356 85.6911 1.32022 74.4539 2.3202C63.2167 3.32017 52.3211 6.70057 42.4912 12.2367C32.6614 17.7728 24.1225 25.3378 17.4422 34.4289C10.7619 43.5199 6.09313 53.9288 3.7463 64.9636C1.39946 75.9984 1.42829 87.4063 3.83087 98.4291C6.23346 109.452 10.9548 119.837 17.6809 128.894C24.4071 137.951 32.9841 145.473 42.8418 150.96C52.6995 156.446 63.6121 159.771 74.8542 160.714" stroke="#FFBD00" stroke-width="4" stroke-linecap="round" stroke-linejoin="round"/>
<circle cx="81.4999" cy="81.5" r="66.8597" transform="rotate(-30 81.4999 81.5)" stroke="#EBF0F0" stroke-opacity="0.1" stroke-width="4"/>
<path d="M112.452 22.2361C102.486 17.0313 91.3686 14.4236 80.1279 14.6544C68.8872 14.8851 57.8862 17.9467 48.1424 23.5561C38.3986 29.1654 30.2267 37.1414 24.3825 46.7462C18.5384 56.351 15.2107 67.2745 14.7073 78.5063C14.2039 89.7381 16.541 100.915 21.5025 111.005C26.4639 121.094 33.8895 129.769 43.0924 136.227C52.2953 142.686 62.9783 146.719 74.1533 147.955C85.3283 149.19 96.6344 147.588 107.026 143.295" stroke="#F20089" stroke-width="4" stroke-linecap="round" stroke-linejoin="round"/>
<circle cx="81.9428" cy="81.9429" r="53.7499" transform="rotate(-60 81.9428 81.9429)" stroke="#EBF0F0" stroke-opacity="0.1" stroke-width="4"/>
<path d="M108.818 35.3941C100.902 30.8239 91.9516 28.3479 82.8125 28.2C73.6734 28.0521 64.6475 30.2372 56.5881 34.5488C48.5286 38.8605 41.7018 45.1562 36.7529 52.8408C31.804 60.5255 28.8966 69.3452 28.3054 78.4664C27.7142 87.5875 29.4588 96.7088 33.3743 104.968C37.2898 113.227 43.2468 120.351 50.6822 125.667C58.1177 130.983 66.786 134.315 75.8677 135.348C84.9494 136.381 94.1446 135.082 102.584 131.571" stroke="#7A52F4" stroke-width="4" stroke-linecap="round" stroke-linejoin="round"/>
</svg>
