<svg width="33" height="26" viewBox="0 0 33 26" fill="none" xmlns="http://www.w3.org/2000/svg">
<path d="M16.25 0C14.7416 0 13.2949 0.599217 12.2283 1.66583C11.1617 2.73244 10.5625 4.17908 10.5625 5.6875H13.8125C13.8125 5.04103 14.0693 4.42105 14.5264 3.96393C14.9835 3.50681 15.6035 3.25 16.25 3.25C16.8965 3.25 17.5165 3.50681 17.9736 3.96393C18.4307 4.42105 18.6875 5.04103 18.6875 5.6875C18.6875 6.33397 18.4307 6.95395 17.9736 7.41107C17.5165 7.86819 16.8965 8.125 16.25 8.125C15.3562 8.125 14.625 8.85625 14.625 9.75V12.5938L0.65 23.075C0.377153 23.2796 0.175608 23.5649 0.0739155 23.8905C-0.0277773 24.216 -0.0244627 24.5653 0.0833897 24.8889C0.191242 25.2124 0.398164 25.4938 0.674846 25.6933C0.951527 25.8927 1.28394 26 1.625 26H30.875C31.2161 26 31.5485 25.8927 31.8252 25.6933C32.1018 25.4938 32.3088 25.2124 32.4166 24.8889C32.5245 24.5653 32.5278 24.216 32.4261 23.8905C32.3244 23.5649 32.1228 23.2796 31.85 23.075L17.875 12.5938V11.1313C19.0477 10.7816 20.0763 10.0631 20.8082 9.08244C21.54 8.10175 21.9361 6.91117 21.9375 5.6875C21.9375 4.17908 21.3383 2.73244 20.2717 1.66583C19.2051 0.599217 17.7584 0 16.25 0ZM16.25 15.4375L26 22.75H6.5L16.25 15.4375Z" fill="#F8F8F8"/>
</svg>
