<svg width="633" height="226" viewBox="0 0 633 226" fill="none" xmlns="http://www.w3.org/2000/svg">
<path opacity="0.15" d="M0.500781 224.854L632.499 224.854" stroke="#CFDBD5" stroke-linecap="square"/>
<path fill-rule="evenodd" clip-rule="evenodd" d="M26.3149 224.854L25.9231 0.501764L26.3149 224.854Z" fill="white" fill-opacity="0.05"/>
<path d="M26.3149 224.854L25.9231 0.501764" stroke="#CFDBD5" stroke-opacity="0.15" stroke-linecap="square" stroke-dasharray="4 4"/>
<path fill-rule="evenodd" clip-rule="evenodd" d="M457.36 224.854L456.968 0.501764L457.36 224.854Z" fill="white" fill-opacity="0.05"/>
<path d="M457.36 224.854L456.968 0.501764" stroke="#CFDBD5" stroke-opacity="0.15" stroke-linecap="square" stroke-dasharray="4 4"/>
<path fill-rule="evenodd" clip-rule="evenodd" d="M98.6581 224.854L98.2663 0.501764L98.6581 224.854Z" fill="white" fill-opacity="0.05"/>
<path d="M98.6581 224.854L98.2663 0.501764" stroke="#CFDBD5" stroke-opacity="0.15" stroke-linecap="square" stroke-dasharray="4 4"/>
<path fill-rule="evenodd" clip-rule="evenodd" d="M529.703 224.854L529.311 0.501764L529.703 224.854Z" fill="white" fill-opacity="0.05"/>
<path d="M529.703 224.854L529.311 0.501764" stroke="#CFDBD5" stroke-opacity="0.15" stroke-linecap="square" stroke-dasharray="4 4"/>
<path fill-rule="evenodd" clip-rule="evenodd" d="M169.997 224.854L169.605 0.501764L169.997 224.854Z" fill="white" fill-opacity="0.05"/>
<path d="M169.997 224.854L169.605 0.501764" stroke="#CFDBD5" stroke-opacity="0.15" stroke-linecap="square" stroke-dasharray="4 4"/>
<path fill-rule="evenodd" clip-rule="evenodd" d="M601.042 224.854L600.65 0.501764L601.042 224.854Z" fill="white" fill-opacity="0.05"/>
<path d="M601.042 224.854L600.65 0.501764" stroke="#CFDBD5" stroke-opacity="0.15" stroke-linecap="square" stroke-dasharray="4 4"/>
<path fill-rule="evenodd" clip-rule="evenodd" d="M242.34 224.854L241.948 0.501764L242.34 224.854Z" fill="white" fill-opacity="0.05"/>
<path d="M242.34 224.854L241.948 0.501764" stroke="#CFDBD5" stroke-opacity="0.15" stroke-linecap="square" stroke-dasharray="4 4"/>
<path fill-rule="evenodd" clip-rule="evenodd" d="M313.67 224.854L313.294 0.501764L313.67 224.854Z" fill="white" fill-opacity="0.05"/>
<path d="M313.67 224.854L313.294 0.501764" stroke="#CFDBD5" stroke-opacity="0.15" stroke-linecap="square" stroke-dasharray="4 4"/>
<path fill-rule="evenodd" clip-rule="evenodd" d="M386.021 224.854L385.63 0.501764L386.021 224.854Z" fill="white" fill-opacity="0.05"/>
<path d="M386.021 224.854L385.63 0.501764" stroke="#CFDBD5" stroke-opacity="0.15" stroke-linecap="square" stroke-dasharray="4 4"/>
</svg>
