<svg width="48" height="48" viewBox="0 0 48 48" fill="none" xmlns="http://www.w3.org/2000/svg">
<rect x="1" y="1" width="46" height="46" rx="23" stroke="#CFDBD5" stroke-opacity="0.15" stroke-linecap="square"/>
<path d="M20.8008 27.1992C21.6914 28.0664 22.7578 28.5 24 28.5C25.2422 28.5 26.2969 28.0664 27.1641 27.1992C28.0547 26.3086 28.5 25.2422 28.5 24C28.5 22.7578 28.0547 21.7031 27.1641 20.8359C26.2969 19.9453 25.2422 19.5 24 19.5C22.7578 19.5 21.6914 19.9453 20.8008 20.8359C19.9336 21.7031 19.5 22.7578 19.5 24C19.5 25.2422 19.9336 26.3086 20.8008 27.1992ZM30.0117 26.4961V30.0117H26.4961L24 32.4727L21.5039 30.0117H17.9883V26.4961L15.5273 24L17.9883 21.5039V17.9883H21.5039L24 15.5273L26.4961 17.9883H30.0117V21.5039L32.4727 24L30.0117 26.4961Z" fill="white"/>
</svg>
