<svg width="22" height="22" viewBox="0 0 22 22" fill="none" xmlns="http://www.w3.org/2000/svg">
<g clip-path="url(#clip0_7_5083)">
<path d="M10.4449 20.9769C4.68747 20.9769 0 16.2699 0 10.4884C0 4.707 4.68747 0 10.4449 0C16.2024 0 20.8898 4.707 20.8898 10.4884C20.8898 16.2699 16.2024 20.9769 10.4449 20.9769ZM10.4449 1.53489C5.52307 1.53489 1.52852 5.55631 1.52852 10.4884C1.52852 15.4206 5.52307 19.442 10.4449 19.442C15.3668 19.442 19.3613 15.4206 19.3613 10.4884C19.3613 5.55631 15.3668 1.53489 10.4449 1.53489Z" fill="white"/>
<path d="M21.145 22.0001C20.9514 22.0001 20.7578 21.9284 20.6049 21.7749L18.5669 19.7284C18.2714 19.4317 18.2714 18.9405 18.5669 18.6438C18.8624 18.347 19.3515 18.347 19.6471 18.6438L21.6851 20.6903C21.9806 20.987 21.9806 21.4782 21.6851 21.7749C21.5322 21.9284 21.3386 22.0001 21.145 22.0001Z" fill="white"/>
</g>
<defs>
<clipPath id="clip0_7_5083">
<rect width="21.4087" height="21.4999" fill="white" transform="scale(1.02326)"/>
</clipPath>
</defs>
</svg>
