<svg width="21" height="21" viewBox="0 0 21 21" fill="none" xmlns="http://www.w3.org/2000/svg">
<g clip-path="url(#clip0_13_2435)">
<path d="M10.5 20.9999C16.3187 20.9999 20.9999 16.3187 20.9999 10.5C20.9999 4.68119 16.3187 0 10.5 0C4.68119 0 0 4.68119 0 10.5C0 16.3187 4.68119 20.9999 10.5 20.9999Z" fill="#2775CA"/>
<path d="M13.3873 12.1623C13.3873 10.6311 12.4686 10.1061 10.6311 9.88737C9.31858 9.71234 9.05609 9.36238 9.05609 8.74981C9.05609 8.13724 9.49362 7.7436 10.3686 7.7436C11.1561 7.7436 11.5936 8.0061 11.8123 8.66234C11.8561 8.79359 11.9874 8.88106 12.1186 8.88106H12.8185C12.9936 8.88106 13.1248 8.74981 13.1248 8.57488V8.5311C12.9498 7.56856 12.1623 6.82485 11.1561 6.73739V5.68739C11.1561 5.51236 11.0248 5.38111 10.8061 5.33733H10.1499C9.97483 5.33733 9.84358 5.46857 9.7998 5.68739V6.6936C8.4873 6.86864 7.65613 7.7436 7.65613 8.83738C7.65613 10.2811 8.53109 10.8498 10.3686 11.0686C11.5936 11.2873 11.9874 11.5498 11.9874 12.2499C11.9874 12.9499 11.3748 13.4311 10.5436 13.4311C9.40605 13.4311 9.0123 12.9498 8.88105 12.2935C8.83737 12.1186 8.70612 12.031 8.57487 12.031H7.83106C7.65613 12.031 7.52488 12.1623 7.52488 12.3373V12.3811C7.69981 13.4748 8.39984 14.2623 9.84358 14.4811V15.5311C9.84358 15.706 9.97483 15.8373 10.1935 15.8811H10.8498C11.0248 15.8811 11.1561 15.7498 11.1999 15.5311V14.4811C12.5124 14.2623 13.3873 13.3435 13.3873 12.1623Z" fill="white"/>
<path d="M8.26866 16.7562C4.85618 15.5313 3.10615 11.725 4.37497 8.35623C5.03121 6.51874 6.47496 5.11878 8.26866 4.46253C8.4437 4.37507 8.53116 4.24382 8.53116 4.025V3.41254C8.53116 3.2375 8.4437 3.10625 8.26866 3.06257C8.22488 3.06257 8.13741 3.06257 8.09363 3.10625C3.93743 4.41875 1.66241 8.83755 2.9749 12.9937C3.7624 15.4437 5.64368 17.325 8.09363 18.1125C8.26866 18.1999 8.4437 18.1125 8.48738 17.9374C8.53116 17.8938 8.53116 17.85 8.53116 17.7625V17.1499C8.53116 17.0187 8.39991 16.8438 8.26866 16.7562ZM12.9062 3.10625C12.7311 3.01879 12.5561 3.10625 12.5124 3.28129C12.4686 3.32507 12.4686 3.36875 12.4686 3.45632V4.06878C12.4686 4.24382 12.5999 4.41875 12.7311 4.50632C16.1436 5.73124 17.8937 9.53747 16.6248 12.9063C15.9686 14.7438 14.5248 16.1437 12.7311 16.8C12.5561 16.8874 12.4686 17.0187 12.4686 17.2375V17.85C12.4686 18.025 12.5561 18.1563 12.7311 18.1999C12.7749 18.1999 12.8624 18.1999 12.9062 18.1563C17.0624 16.8438 19.3374 12.425 18.0249 8.26876C17.2374 5.77503 15.3123 3.89375 12.9062 3.10625Z" fill="white"/>
</g>
<defs>
<clipPath id="clip0_13_2435">
<rect width="20.2846" height="20.2846" fill="white" transform="scale(1.03526)"/>
</clipPath>
</defs>
</svg>
