<svg width="29" height="26" viewBox="0 0 29 26" fill="none" xmlns="http://www.w3.org/2000/svg">
<path d="M24.6458 3.54043H7.53678L7.37174 2.8766C7.18837 2.02837 6.77577 1.33688 6.13395 0.802128C5.49213 0.267376 4.73112 0 3.85091 0H1.15527C0.825195 0 0.55013 0.110638 0.330078 0.331915C0.110026 0.553191 0 0.848227 0 1.21702C0 1.54894 0.110026 1.82553 0.330078 2.04681C0.55013 2.26809 0.825195 2.37872 1.15527 2.37872H3.85091C4.54774 2.37872 4.95117 2.6922 5.0612 3.31915L7.75684 17.4809C7.97689 18.2553 8.40782 18.8823 9.04964 19.3617C9.69146 19.8411 10.3975 20.0809 11.1676 20.0809H22.2803C22.647 20.0809 22.9404 19.9702 23.1605 19.7489C23.3805 19.5277 23.4906 19.2511 23.4906 18.9191C23.4906 18.1078 23.0871 17.7021 22.2803 17.7021H11.1676C10.6542 17.7021 10.2874 17.4809 10.0674 17.0383L9.95736 16.5404H21.7301C22.4636 16.5404 23.133 16.3191 23.7381 15.8766C24.3433 15.434 24.7559 14.8624 24.9759 14.1617L28.1667 7.35745V7.08085C28.1667 6.08511 27.8274 5.2461 27.1489 4.56383C26.4704 3.88156 25.6361 3.54043 24.6458 3.54043ZM10.5625 14.1617H9.51725L7.97689 5.91915H10.5625V14.1617ZM15.2386 14.1617H12.9281V5.91915H15.2386V14.1617ZM19.9697 14.1617H17.6042V5.91915H19.9697V14.1617ZM22.8854 13.2213V13.3319C22.7754 13.7007 22.5737 13.9404 22.2803 14.0511V5.91915H24.6458C25.306 5.91915 25.6911 6.23262 25.8011 6.85957L22.8854 13.2213ZM14.0833 23.6213C14.0833 24.2851 13.8541 24.8475 13.3957 25.3085C12.9372 25.7695 12.3779 26 11.7178 26C11.0943 26 10.5533 25.7695 10.0949 25.3085C9.63645 24.8475 9.40723 24.2851 9.40723 23.6213C9.40723 22.9574 9.63645 22.395 10.0949 21.934C10.5533 21.473 11.0943 21.2426 11.7178 21.2426C12.3779 21.2426 12.9372 21.473 13.3957 21.934C13.8541 22.395 14.0833 22.9574 14.0833 23.6213ZM23.4906 23.6213C23.4906 24.2851 23.2613 24.8475 22.8029 25.3085C22.3445 25.7695 21.7852 26 21.125 26C20.4648 26 19.9055 25.7695 19.4471 25.3085C18.9887 24.8475 18.7594 24.2851 18.7594 23.6213C18.7594 22.9574 18.9887 22.395 19.4471 21.934C19.9055 21.473 20.4648 21.2426 21.125 21.2426C21.7852 21.2426 22.3445 21.473 22.8029 21.934C23.2613 22.395 23.4906 22.9574 23.4906 23.6213Z" fill="#F8F8F8"/>
</svg>
