<svg width="14" height="13" viewBox="0 0 14 13" fill="none" xmlns="http://www.w3.org/2000/svg">
<path d="M12.5 0.5L7.5 4.5L8.42979 2.14267L12.5 0.5Z" fill="#E17726" stroke="#E17726" stroke-width="0.25" stroke-linecap="round" stroke-linejoin="round"/>
<path d="M1.5 0.5L6.5 4.5L5.60679 2.12748L1.5 0.5Z" fill="#E27625" stroke="#E27625" stroke-width="0.25" stroke-linecap="round" stroke-linejoin="round"/>
<path d="M10.9521 9.5L9.5 11.6646L12.6093 12.5L13.5 9.54732L10.9521 9.5Z" fill="#E27625" stroke="#E27625" stroke-width="0.25" stroke-linecap="round" stroke-linejoin="round"/>
<path d="M0.5 9.54732L1.38768 12.5L4.5 11.6646L3.04938 9.5L0.5 9.54732Z" fill="#E27625" stroke="#E27625" stroke-width="0.25" stroke-linecap="round" stroke-linejoin="round"/>
<path d="M4.34209 6.19267L3.5 7.37317L6.5 7.5L6.40001 4.5L4.34209 6.19267Z" fill="#E27625" stroke="#E27625" stroke-width="0.25" stroke-linecap="round" stroke-linejoin="round"/>
<path d="M9.65788 6.20739L7.56843 4.5L7.5 7.5L10.5 7.3746L9.65788 6.20739Z" fill="#E27625" stroke="#E27625" stroke-width="0.25" stroke-linecap="round" stroke-linejoin="round"/>
<path d="M4.5 11.5L6.5 10.6629L4.77827 9.5L4.5 11.5Z" fill="#E27625" stroke="#E27625" stroke-width="0.25" stroke-linecap="round" stroke-linejoin="round"/>
<path d="M7.5 10.6629L9.5 11.5L9.22673 9.5L7.5 10.6629Z" fill="#E27625" stroke="#E27625" stroke-width="0.25" stroke-linecap="round" stroke-linejoin="round"/>
<path d="M9.5 11.547L7.5 10.5L7.66277 11.9044L7.64532 12.5L9.5 11.547Z" fill="#D5BFB2" stroke="#D5BFB2" stroke-width="0.25" stroke-linecap="round" stroke-linejoin="round"/>
<path d="M4.5 11.547L6.35511 12.5L6.3435 11.9044L6.5 10.5L4.5 11.547Z" fill="#D5BFB2" stroke="#D5BFB2" stroke-width="0.25" stroke-linecap="round" stroke-linejoin="round"/>
<path d="M5.5 8.5L4.5 8.02544L5.20628 7.5L5.5 8.5Z" fill="#233447" stroke="#233447" stroke-width="0.25" stroke-linecap="round" stroke-linejoin="round"/>
<path d="M8.5 8.5L8.79269 7.5L9.5 8.02544L8.5 8.5Z" fill="#233447" stroke="#233447" stroke-width="0.25" stroke-linecap="round" stroke-linejoin="round"/>
<path d="M4.18552 11.5L4.5 9.5L2.5 9.54372L4.18552 11.5Z" fill="#CC6228" stroke="#CC6228" stroke-width="0.25" stroke-linecap="round" stroke-linejoin="round"/>
<path d="M9.5 9.5L9.80819 11.5L11.5 9.54372L9.5 9.5Z" fill="#CC6228" stroke="#CC6228" stroke-width="0.25" stroke-linecap="round" stroke-linejoin="round"/>
<path d="M10.5 6.5L7.5 6.66301L7.77894 8.5L8.22106 7.39027L9.28949 7.97334L10.5 6.5Z" fill="#CC6228" stroke="#CC6228" stroke-width="0.25" stroke-linecap="round" stroke-linejoin="round"/>
<path d="M4.71579 7.97334L5.77894 7.39027L6.22107 8.5L6.5 6.66301L3.5 6.5L4.71579 7.97334Z" fill="#CC6228" stroke="#CC6228" stroke-width="0.25" stroke-linecap="round" stroke-linejoin="round"/>
<path d="M3.5 7.5L4.5 9.5L4.4665 8.50643L3.5 7.5Z" fill="#E27525" stroke="#E27525" stroke-width="0.25" stroke-linecap="round" stroke-linejoin="round"/>
<path d="M9.53765 8.50643L9.5 9.5L10.5 7.5L9.53765 8.50643Z" fill="#E27525" stroke="#E27525" stroke-width="0.25" stroke-linecap="round" stroke-linejoin="round"/>
<path d="M6.52003 7.5L6.45 8.87562L6.53851 10.5L6.55833 8.35917L6.52003 7.5Z" fill="#E27525" stroke="#E27525" stroke-width="0.25" stroke-linecap="round" stroke-linejoin="round"/>
<path d="M7.48745 7.5L7.45 8.35449L7.46873 10.5L7.55833 8.87562L7.48745 7.5Z" fill="#E27525" stroke="#E27525" stroke-width="0.25" stroke-linecap="round" stroke-linejoin="round"/>
<path d="M7.87853 8.86209L7.5 10.3534L7.7712 10.5L9.44916 9.5L9.5 8.5L7.87853 8.86209Z" fill="#F5841F" stroke="#F5841F" stroke-width="0.25" stroke-linecap="round" stroke-linejoin="round"/>
<path d="M4.5 8.5L4.54536 9.5L6.22804 10.5L6.5 10.3534L6.1204 8.86209L4.5 8.5Z" fill="#F5841F" stroke="#F5841F" stroke-width="0.25" stroke-linecap="round" stroke-linejoin="round"/>
<path d="M8.00518 12.1104L8.01921 11.7289L7.8974 11.6406H6.10733L5.99017 11.7289L5.99955 12.1104L4.5 11.5L5.02483 11.8695L6.08857 12.5H7.91143L8.97985 11.8695L9.5 11.5L8.00518 12.1104Z" fill="#C0AC9D" stroke="#C0AC9D" stroke-width="0.25" stroke-linecap="round" stroke-linejoin="round"/>
<path d="M7.37065 10.6318L7.14894 10.5H5.84641L5.62472 10.6318L5.5 11.5L5.61548 11.4147H7.3799L7.5 11.5L7.37065 10.6318Z" fill="#161616" stroke="#161616" stroke-width="0.25" stroke-linecap="round" stroke-linejoin="round"/>
<path d="M13.0384 4.50165L13.5 2.42821L12.805 0.5L7.5 4.13106L9.5416 5.72369L12.4249 6.5L13.0602 5.81386L12.7833 5.62853L13.2231 5.25794L12.8864 5.01753L13.3263 4.707L13.0384 4.50165Z" fill="#763E1A" stroke="#763E1A" stroke-width="0.25" stroke-linecap="round" stroke-linejoin="round"/>
<path d="M0.5 2.42821L0.966969 4.50165L0.668328 4.707L1.11358 5.01753L0.776924 5.25794L1.21674 5.62853L0.939818 5.81386L1.57512 6.5L4.4584 5.72369L6.5 4.13106L1.19502 0.5L0.5 2.42821Z" fill="#763E1A" stroke="#763E1A" stroke-width="0.25" stroke-linecap="round" stroke-linejoin="round"/>
<path d="M12.5965 6.37445L9.90102 5.5L10.7132 6.86532L9.5 9.5L11.1041 9.47745H13.5L12.5965 6.37445Z" fill="#F5841F" stroke="#F5841F" stroke-width="0.25" stroke-linecap="round" stroke-linejoin="round"/>
<path d="M4.09847 5.5L1.39962 6.37445L0.5 9.47745H2.89391L4.5 9.5L3.28527 6.86532L4.09847 5.5Z" fill="#F5841F" stroke="#F5841F" stroke-width="0.25" stroke-linecap="round" stroke-linejoin="round"/>
<path d="M7.67785 7.38672L7.82654 4.53165L8.5 2.5H5.5L6.17346 4.53165L6.32215 7.38672L6.379 8.28318L6.38338 10.5H7.61662L7.621 8.28318L7.67785 7.38672Z" fill="#F5841F" stroke="#F5841F" stroke-width="0.25" stroke-linecap="round" stroke-linejoin="round"/>
</svg>
