<svg width="35" height="39" viewBox="0 0 35 39" fill="none" xmlns="http://www.w3.org/2000/svg">
<path d="M0 38.9998V12.9999L17.4106 0L34.8213 12.9999V38.9998H0ZM4.35266 34.6665H30.4686V15.1666L17.4106 5.41664L4.35266 15.1666V34.6665ZM13.058 32.4999H15.2343V23.8332C16.1411 23.8332 16.9115 23.5169 17.5456 22.8842C18.1811 22.253 18.4988 21.486 18.4988 20.5832V14.0833H16.3225V20.5832H15.2343V14.0833H13.058V20.5832H11.9698V14.0833H9.79348V20.5832C9.79348 21.486 10.1112 22.253 10.7467 22.8842C11.3808 23.5169 12.1512 23.8332 13.058 23.8332V32.4999ZM21.7633 32.4999H23.9396V14.0833C22.7426 14.0833 21.7183 14.5072 20.8666 15.3551C20.0135 16.2044 19.587 17.2249 19.587 18.4166V24.9166H21.7633V32.4999ZM4.35266 34.6665H30.4686H4.35266Z" fill="#F8F8F8"/>
</svg>
