<svg width="626" height="663" viewBox="0 0 626 663" fill="none" xmlns="http://www.w3.org/2000/svg">
<path d="M254.893 643.379L254.045 650.444L248.576 653.779L254.852 655.062L258.045 661.421L258.893 654.356L264.362 651.021L258.086 649.738L254.893 643.379Z" fill="white"/>
<path d="M597.62 178.428L595.512 195.988L581.918 204.278L597.518 207.468L605.455 223.273L607.562 205.713L621.157 197.423L605.557 194.233L597.62 178.428Z" fill="white"/>
<path d="M600.804 509.363L599.965 516.348L594.558 519.645L600.763 520.914L603.92 527.2L604.758 520.216L610.166 516.918L603.961 515.65L600.804 509.363Z" fill="white"/>
<path d="M6.05774 544.058L5.40709 549.48L1.20959 552.04L6.02634 553.025L8.47692 557.905L9.12757 552.483L13.3251 549.923L8.50832 548.938L6.05774 544.058Z" fill="white"/>
<path d="M130.745 341.227L129.376 352.634L120.545 358.019L130.678 360.09L135.834 370.357L137.203 358.95L146.034 353.565L135.9 351.494L130.745 341.227Z" fill="white"/>
<path d="M179.324 1.97842L178.107 12.1134L170.261 16.898L179.265 18.7386L183.846 27.8608L185.062 17.7258L192.908 12.9412L183.904 11.1006L179.324 1.97842Z" fill="white"/>
</svg>
