<svg width="24" height="26" viewBox="0 0 24 26" fill="none" xmlns="http://www.w3.org/2000/svg">
<path d="M10.4369 0C12.9712 0.00016465 15.4189 0.918946 17.3235 2.58496C19.2281 4.25098 20.4594 6.55047 20.7878 9.0545L23.7233 13.6552C23.9164 13.9581 23.8772 14.4092 23.4297 14.6016L20.874 15.691V19.5C20.874 20.1896 20.5991 20.8509 20.1097 21.3385C19.6204 21.8261 18.9567 22.1 18.2647 22.1H15.6567L15.6554 26H3.91366V21.1978C3.91366 19.6638 3.34484 18.2117 2.29069 16.9013C1.06141 15.3719 0.290741 13.5275 0.0674869 11.5807C-0.155767 9.63391 0.177473 7.66386 1.02881 5.89753C1.88016 4.13121 3.21496 2.64047 4.87945 1.59707C6.54394 0.553664 8.47038 4.8307e-05 10.4369 0ZM10.4369 2.6C8.96206 2.59994 7.51726 3.01502 6.26887 3.79743C5.02049 4.57983 4.01932 5.69774 3.38069 7.02235C2.74206 8.34697 2.49195 9.82441 2.65919 11.2845C2.82642 12.7445 3.40419 14.1278 4.32593 15.275C5.7532 17.0482 6.52294 19.0671 6.52294 21.1978V23.4H13.0461L13.0487 19.5H18.2647V13.9776L20.2869 13.1144L18.2738 9.9619L18.1994 9.3873C17.9525 7.50998 17.0287 5.78623 15.6005 4.53743C14.1723 3.28864 12.337 2.60003 10.4369 2.6ZM9.74539 7.4919L10.4369 8.1809L11.1283 7.4919C11.3389 7.27457 11.5908 7.10121 11.8693 6.98192C12.1478 6.86263 12.4474 6.79982 12.7505 6.79713C13.0537 6.79444 13.3543 6.85195 13.635 6.96628C13.9156 7.08061 14.1705 7.24949 14.3849 7.46305C14.5993 7.67661 14.7689 7.93058 14.8838 8.21015C14.9986 8.48972 15.0565 8.78927 15.0539 9.09135C15.0513 9.39342 14.9884 9.69196 14.8688 9.96954C14.7492 10.2471 14.5753 10.4982 14.3573 10.7081L10.4369 14.6159L6.51641 10.7081C6.2984 10.4982 6.12452 10.2471 6.00492 9.96954C5.88532 9.69196 5.8224 9.39342 5.81982 9.09135C5.81725 8.78927 5.87508 8.48972 5.98993 8.21015C6.10478 7.93058 6.27436 7.67661 6.48878 7.46305C6.70319 7.24949 6.95814 7.08061 7.23874 6.96628C7.51935 6.85195 7.82001 6.79444 8.12316 6.79713C8.42631 6.79982 8.72588 6.86263 9.00441 6.98192C9.28293 7.10121 9.53483 7.27457 9.74539 7.4919Z" fill="#F8F8F8"/>
</svg>
