<svg width="219" height="84" viewBox="0 0 219 84" fill="none" xmlns="http://www.w3.org/2000/svg">
<rect x="78.9735" y="73" width="8.77483" height="11" rx="1" fill="url(#paint0_linear_18_2324)"/>
<rect x="130.745" y="55" width="8.77483" height="29" rx="1" fill="url(#paint1_linear_18_2324)"/>
<rect x="170.232" y="55" width="8.77483" height="29" rx="1" fill="url(#paint2_linear_18_2324)"/>
<rect x="183.394" y="31" width="8.77483" height="53" rx="1" fill="url(#paint3_linear_18_2324)"/>
<rect opacity="0.1" x="13.1622" y="70" width="8.77483" height="14" rx="1" fill="#EBF0F0"/>
<rect x="39.4868" y="57" width="8.77483" height="27" rx="1" fill="url(#paint4_linear_18_2324)"/>
<rect x="104.421" y="27" width="8.77483" height="57" rx="1" fill="url(#paint5_linear_18_2324)"/>
<rect opacity="0.1" x="196.556" y="8" width="8.77483" height="76" rx="1" fill="#EBF0F0"/>
<rect opacity="0.1" y="77" width="8.77483" height="7" rx="1" fill="#EBF0F0"/>
<rect x="92.1357" y="69" width="8.77483" height="15" rx="1" fill="url(#paint6_linear_18_2324)"/>
<rect x="143.907" width="8.77483" height="84" rx="1" fill="url(#paint7_linear_18_2324)"/>
<rect x="26.3245" y="42" width="8.77483" height="42" rx="1" fill="url(#paint8_linear_18_2324)"/>
<rect x="52.649" y="46" width="8.77483" height="38" rx="1" fill="url(#paint9_linear_18_2324)"/>
<rect x="65.8113" y="78" width="8.77483" height="6" rx="1" fill="url(#paint10_linear_18_2324)"/>
<rect x="117.583" y="45" width="8.77483" height="39" rx="1" fill="url(#paint11_linear_18_2324)"/>
<rect x="157.07" y="45" width="8.77483" height="39" rx="1" fill="url(#paint12_linear_18_2324)"/>
<rect opacity="0.1" x="209.719" y="66" width="8.77483" height="18" rx="1" fill="#EBF0F0"/>
<defs>
<linearGradient id="paint0_linear_18_2324" x1="83.3609" y1="73" x2="83.3609" y2="84" gradientUnits="userSpaceOnUse">
<stop stop-color="#FF0A63"/>
<stop offset="0.588542" stop-color="#FF515C"/>
<stop offset="1" stop-color="#FF6B24"/>
</linearGradient>
<linearGradient id="paint1_linear_18_2324" x1="135.132" y1="55" x2="135.132" y2="84" gradientUnits="userSpaceOnUse">
<stop stop-color="#FF0A63"/>
<stop offset="0.588542" stop-color="#FF515C"/>
<stop offset="1" stop-color="#FF6B24"/>
</linearGradient>
<linearGradient id="paint2_linear_18_2324" x1="174.619" y1="55" x2="174.619" y2="84" gradientUnits="userSpaceOnUse">
<stop stop-color="#FF0A63"/>
<stop offset="0.588542" stop-color="#FF515C"/>
<stop offset="1" stop-color="#FF6B24"/>
</linearGradient>
<linearGradient id="paint3_linear_18_2324" x1="187.781" y1="31" x2="187.781" y2="84" gradientUnits="userSpaceOnUse">
<stop stop-color="#FF0A63"/>
<stop offset="0.588542" stop-color="#FF515C"/>
<stop offset="1" stop-color="#FF6B24"/>
</linearGradient>
<linearGradient id="paint4_linear_18_2324" x1="43.8742" y1="57" x2="43.8742" y2="84" gradientUnits="userSpaceOnUse">
<stop stop-color="#FF0A63"/>
<stop offset="0.588542" stop-color="#FF515C"/>
<stop offset="1" stop-color="#FF6B24"/>
</linearGradient>
<linearGradient id="paint5_linear_18_2324" x1="108.808" y1="27" x2="108.808" y2="84" gradientUnits="userSpaceOnUse">
<stop stop-color="#FF0A63"/>
<stop offset="0.588542" stop-color="#FF515C"/>
<stop offset="1" stop-color="#FF6B24"/>
</linearGradient>
<linearGradient id="paint6_linear_18_2324" x1="96.5232" y1="69" x2="96.5232" y2="84" gradientUnits="userSpaceOnUse">
<stop stop-color="#FF0A63"/>
<stop offset="0.588542" stop-color="#FF515C"/>
<stop offset="1" stop-color="#FF6B24"/>
</linearGradient>
<linearGradient id="paint7_linear_18_2324" x1="148.295" y1="0" x2="148.295" y2="84" gradientUnits="userSpaceOnUse">
<stop stop-color="#FF0A63"/>
<stop offset="0.588542" stop-color="#FF515C"/>
<stop offset="1" stop-color="#FF6B24"/>
</linearGradient>
<linearGradient id="paint8_linear_18_2324" x1="30.7119" y1="42" x2="30.7119" y2="84" gradientUnits="userSpaceOnUse">
<stop stop-color="#FF0A63"/>
<stop offset="0.588542" stop-color="#FF515C"/>
<stop offset="1" stop-color="#FF6B24"/>
</linearGradient>
<linearGradient id="paint9_linear_18_2324" x1="57.0364" y1="46" x2="57.0364" y2="84" gradientUnits="userSpaceOnUse">
<stop stop-color="#FF0A63"/>
<stop offset="0.588542" stop-color="#FF515C"/>
<stop offset="1" stop-color="#FF6B24"/>
</linearGradient>
<linearGradient id="paint10_linear_18_2324" x1="70.1987" y1="78" x2="70.1987" y2="84" gradientUnits="userSpaceOnUse">
<stop stop-color="#FF0A63"/>
<stop offset="0.588542" stop-color="#FF515C"/>
<stop offset="1" stop-color="#FF6B24"/>
</linearGradient>
<linearGradient id="paint11_linear_18_2324" x1="121.97" y1="45" x2="121.97" y2="84" gradientUnits="userSpaceOnUse">
<stop stop-color="#FF0A63"/>
<stop offset="0.588542" stop-color="#FF515C"/>
<stop offset="1" stop-color="#FF6B24"/>
</linearGradient>
<linearGradient id="paint12_linear_18_2324" x1="161.457" y1="45" x2="161.457" y2="84" gradientUnits="userSpaceOnUse">
<stop stop-color="#FF0A63"/>
<stop offset="0.588542" stop-color="#FF515C"/>
<stop offset="1" stop-color="#FF6B24"/>
</linearGradient>
</defs>
</svg>
